# xmcd CD database file
#
# Track frame offsets:
#	150
#	15995
#	30860
#	48946
#	64720
#	83041
#	101586
#	114284
#	127197
#	136718
#	150748
#	177427
#
# Disc length: 2650 seconds
#
# Revision: 0
# Processed by: cddbd v1.5.1PL0 Copyright (c) Steve Scherf et al.
# Submitted via: CDex 1.51
#
DISCID=890a580c
DTITLE=MidNight Blues - Part 2
DYEAR=1999
DGENRE=Blues
TTITLE0=Night Train
TTITLE1=Moanan
TTITLE2=Edd Tibe
TTITLE3=What a Difference a Day Made
TTITLE4=Water Melon Man
TTITLE5=Misty
TTITLE6=Midnight Blues part 2
TTITLE7=Sweet and Gentle
TTITLE8=Slush
TTITLE9=El Chocio
TTITLE10=Manha De Carnaval
TTITLE11=Stardust
EXTD=YEAR: 1999
EXTT0=
EXTT1=
EXTT2=
EXTT3=
EXTT4=
EXTT5=
EXTT6=
EXTT7=
EXTT8=
EXTT9=
EXTT10=
EXTT11=
PLAYORDER=
